# xmcd
#
# Track frame offsets:
#	150
#	23738
#	46109
#	63115
#	82517
#	102134
#	126257
#	148776
#	170031
#	189043
#	212569
#	232061
#	251401
#	272564
#
# Disc length: 3885 seconds
#
# Revision: 0
# Processed by: cddbd v1.5.2PL0 Copyright (c) Steve Scherf et al.
# Submitted via: EZCDAudioConverter 8.0.2.1
#
DISCID=b00f2b0e
DTITLE=Hoàng Bách - Vol 03. Giây Phút Mong Manh
DYEAR=2011
DGENRE=
TTITLE0=Hoàng Bách - Giây Phút Mong Manh
TTITLE1=Hoàng Bách - Con đường hạnh phúc
TTITLE2=Hoàng Bách - Giá như
TTITLE3=Hoàng Bách - Dù biết không bao giờ
TTITLE4=Hoàng Bách - Để mãi có nhau
TTITLE5=Hoàng Bách - Đó là tình yêu
TTITLE6=Hoàng Bách - Tôi về đâu
TTITLE7=Hoàng Bách - Vệt nắng cuối trời
TTITLE8=Hoàng Bách - Tàn phai giấc mơ
TTITLE9=Soundtrack - Giây Phút Mong Manh
TTITLE10=Soundtrack - Để mãi có nhau
TTITLE11=Soundtrack - Dù biết không bao giờ
TTITLE12=Soundtrack - Vệt nắng cuối trời
TTITLE13=Soundtrack - Tàn phai giấc mơ
EXTD=
EXTT0=
EXTT1=
EXTT2=
EXTT3=
EXTT4=
EXTT5=
EXTT6=
EXTT7=
EXTT8=
EXTT9=
EXTT10=
EXTT11=
EXTT12=
EXTT13=
PLAYORDER=
